<?xml version="1.0" standalone="no"?>
<!DOCTYPE svg PUBLIC "-//W3C//DTD SVG 20010904//EN"
 "http://www.w3.org/TR/2001/REC-SVG-20010904/DTD/svg10.dtd">
<svg version="1.0" xmlns="http://www.w3.org/2000/svg"
 width="1000.000000pt" height="1000.000000pt" viewBox="0 0 1000.000000 1000.000000"
 preserveAspectRatio="xMidYMid meet">
<metadata>
Created by potrace 1.11, written by Peter Selinger 2001-2013
</metadata>
<g transform="translate(0.000000,1000.000000) scale(0.100000,-0.100000)"
fill="#000000" stroke="none">
<path d="M8467 8893 c-3 -5 -5 -529 -4 -1165 0 -907 2 -1158 12 -1158 10 0 12
252 12 1165 0 641 -4 1165 -8 1165 -4 0 -10 -3 -12 -7z"/>
<path d="M3950 7309 c0 -27 -8 -51 -24 -72 -20 -28 -23 -44 -24 -128 l-1 -97
27 -3 c15 -2 230 -4 477 -3 l450 1 0 129 0 129 -420 1 c-231 1 -428 2 -438 3
-12 1 -17 9 -16 29 3 43 0 52 -16 52 -11 0 -15 -11 -15 -41z"/>
<path d="M3483 7118 l1 -73 163 0 163 0 0 73 0 72 -164 0 -163 0 0 -72z"/>
<path d="M2473 7122 c-3 -7 -3 -15 -1 -17 3 -4 754 -8 871 -5 9 0 17 8 17 18
0 16 -27 17 -441 18 -359 0 -442 -3 -446 -14z"/>
<path d="M3752 6839 c-9 -4 -21 -4 -25 -2 -5 3 -21 -1 -35 -8 -82 -42 -122
-127 -177 -374 -11 -47 -15 -65 -40 -165 -15 -58 -28 -112 -30 -120 -1 -8 -9
-35 -16 -60 -7 -25 -12 -50 -10 -57 1 -6 -3 -14 -8 -18 -6 -3 -8 -12 -5 -19 3
-8 0 -17 -7 -22 -7 -4 -222 -8 -478 -9 -256 -1 -482 -5 -501 -8 -19 -4 -73
-11 -120 -17 -122 -15 -161 -21 -192 -26 -42 -6 -78 -12 -128 -19 -217 -31
-467 -100 -490 -136 -3 -5 -6 -128 -5 -274 0 -229 -2 -265 -15 -266 -8 -1 -26
-2 -40 -2 -24 -2 -25 -4 -26 -93 l-1 -90 101 1 c56 1 106 2 113 3 10 2 25 32
26 52 0 3 7 11 14 18 7 8 11 17 8 22 -3 5 -1 10 3 12 4 1 23 26 42 53 53 77
189 203 203 188 4 -3 7 -2 7 4 0 9 115 72 142 77 7 2 20 6 28 9 70 28 163 42
275 41 147 -1 238 -18 365 -70 288 -117 475 -347 495 -612 6 -78 25 -119 77
-167 65 -61 152 -95 278 -110 59 -8 2468 -7 2543 0 33 3 67 10 78 16 10 5 19
7 19 4 0 -11 128 44 180 77 88 57 162 145 174 209 15 84 134 339 158 339 4 0
8 7 8 15 0 8 5 15 10 15 6 0 10 5 10 12 0 20 131 137 207 185 66 41 171 87
228 99 147 33 301 36 420 9 105 -24 245 -84 296 -128 11 -10 22 -17 25 -17 9
0 108 -102 135 -140 59 -81 112 -206 122 -285 l4 -30 256 -3 257 -3 0 28 c5
324 -1 806 -10 823 -11 20 -19 21 -208 20 -108 0 -571 -1 -1029 0 l-832 0 -32
63 c-18 34 -50 97 -73 140 -23 43 -59 113 -81 155 -22 42 -65 124 -96 182 -61
114 -155 292 -214 408 -32 61 -41 72 -64 73 -170 3 -562 0 -570 -5 -6 -4 -11
-3 -11 1 0 10 -53 9 -69 -2 -6 -3 -11 -3 -11 2 0 7 -107 9 -135 3 -5 -1 -12
-1 -15 0 -16 6 -62 5 -66 -2 -3 -5 -10 -5 -16 -2 -6 4 -36 6 -67 5 -60 -1
-104 0 -136 3 -11 1 -32 -1 -47 -5 -14 -4 -29 -5 -32 -2 -10 10 -66 11 -72 2
-3 -5 -9 -7 -14 -4 -8 5 -114 7 -150 3 -9 -1 -28 2 -43 6 -17 4 -27 2 -27 -4
0 -6 -5 -8 -10 -5 -13 8 -519 9 -527 2 -3 -3 -16 -2 -29 3 -16 6 -24 6 -24 -1
0 -6 -6 -7 -17 -1 -9 5 -29 6 -44 2 -15 -5 -30 -6 -32 -3 -8 7 -136 9 -155 2z
m983 -188 c20 -1 20 -7 18 -378 -1 -208 -2 -383 -2 -388 -1 -7 -157 -11 -481
-11 -432 -1 -480 1 -481 15 -5 79 -3 740 2 751 6 13 67 15 466 14 252 -1 467
-2 478 -3z m1236 0 c13 -1 15 -45 15 -389 l0 -388 -483 0 -482 -1 -1 388 c0
357 1 388 17 391 14 3 889 2 934 -1z m-1846 -1244 c61 -48 118 -94 129 -102
19 -14 30 -8 132 80 7 6 26 21 44 35 18 14 37 30 44 35 39 35 120 95 128 95 5
0 16 -6 23 -14 13 -12 9 -19 -28 -50 -87 -76 -124 -106 -183 -153 -106 -84
-104 -74 -26 -135 80 -63 95 -76 130 -106 15 -13 48 -39 74 -59 l48 -37 -21
-23 -22 -22 -76 62 c-42 34 -78 64 -81 67 -3 3 -21 17 -40 31 -19 15 -45 35
-57 45 -52 46 -64 54 -74 54 -9 0 -44 -26 -163 -123 -136 -111 -174 -136 -183
-124 -23 29 -21 36 30 75 28 22 63 50 77 62 14 12 62 52 108 88 93 74 94 59
-8 142 -30 25 -60 49 -66 55 -7 5 -29 24 -50 40 -20 17 -49 40 -63 53 -14 13
-32 27 -41 32 -13 7 -12 11 4 29 l19 21 41 -33 c23 -18 91 -72 151 -120z
m1734 89 c-14 -11 -60 -50 -104 -85 -93 -75 -102 -83 -132 -111 -13 -11 -27
-20 -32 -20 -5 0 -11 -7 -15 -15 -5 -13 3 -24 36 -50 30 -23 114 -90 124 -100
7 -5 41 -32 78 -60 36 -27 65 -54 66 -58 0 -4 -8 -17 -18 -27 -18 -19 -19 -19
-38 -2 -38 33 -271 220 -291 232 -18 12 -27 8 -82 -35 -34 -26 -73 -57 -86
-69 -14 -11 -43 -34 -65 -50 -22 -17 -40 -33 -40 -38 0 -4 -5 -8 -10 -8 -6 0
-23 -11 -38 -25 l-27 -25 -20 20 -20 20 25 23 c14 12 70 58 125 102 55 44 111
90 125 102 14 13 28 23 32 23 17 0 7 28 -14 43 -13 8 -33 23 -45 33 -12 11
-30 26 -40 34 -129 105 -189 154 -196 160 -12 10 3 40 20 40 8 0 51 -29 96
-65 185 -148 234 -185 247 -185 6 0 17 6 24 13 7 6 30 26 51 42 21 17 88 69
148 118 108 86 110 87 125 66 13 -19 13 -23 -9 -43z"/>
<path d="M6244 6759 c24 -46 60 -115 81 -154 20 -38 60 -113 87 -165 28 -52
63 -117 78 -145 15 -27 49 -90 74 -139 26 -49 51 -95 57 -103 6 -7 8 -13 3
-13 -5 0 -4 -4 1 -8 6 -4 24 -33 40 -64 17 -32 37 -58 45 -59 8 0 448 -2 978
-2 1082 -2 991 -10 924 78 -49 65 -113 102 -264 154 -68 23 -130 45 -138 48
-8 4 -17 7 -20 8 -3 1 -12 4 -20 7 -8 3 -58 20 -110 38 -52 18 -104 36 -115
40 -19 9 -79 30 -460 160 -93 32 -228 79 -300 104 -71 26 -186 65 -255 87 -69
22 -134 45 -145 50 -12 6 -27 11 -35 13 -8 2 -24 6 -35 10 -130 49 -404 126
-473 133 l-42 5 44 -83z"/>
<path d="M8442 6459 c-1 -22 -4 -45 -7 -49 -3 -5 -1 -11 4 -15 6 -3 7 -15 2
-28 -5 -13 -5 -30 0 -39 6 -11 5 -19 -1 -23 -6 -4 -8 -10 -5 -15 3 -5 6 -29 7
-54 0 -32 5 -46 17 -49 9 -3 24 -8 34 -12 16 -7 17 5 17 159 l0 166 -33 0
c-32 0 -34 -2 -35 -41z"/>
<path d="M2358 5335 c-2 -2 -28 -6 -58 -9 -30 -4 -71 -11 -90 -17 -33 -10 -45
-14 -110 -42 -52 -23 -160 -100 -199 -143 -38 -42 -105 -133 -106 -144 -1 -3
-11 -24 -23 -47 -40 -77 -65 -207 -59 -308 9 -139 29 -208 92 -320 65 -117
246 -273 328 -284 4 0 20 -7 35 -14 61 -31 243 -49 332 -33 89 17 180 46 180
58 0 4 7 8 16 8 23 0 131 76 186 132 66 66 151 206 163 268 2 8 4 15 5 15 2 0
4 11 18 86 9 44 8 179 -1 229 -51 287 -297 523 -577 556 -62 7 -129 12 -132 9z
m138 -383 c46 -14 107 -56 138 -92 29 -36 70 -110 60 -110 -4 0 -1 -6 5 -14
14 -16 16 -108 6 -159 -9 -40 -42 -102 -75 -141 -109 -126 -317 -137 -446 -24
-39 34 -83 97 -90 129 -2 10 -6 29 -9 42 -13 55 -13 70 0 130 17 81 27 99 91
163 66 66 134 93 224 89 36 -1 79 -7 96 -13z"/>
<path d="M2372 4878 c-16 -16 -15 -23 4 -43 15 -15 18 -15 34 0 10 9 16 24 13
36 -6 21 -33 25 -51 7z"/>
<path d="M2223 4819 c-15 -15 -4 -49 17 -49 23 0 42 24 34 44 -7 18 -35 21
-51 5z"/>
<path d="M2522 4815 c-16 -19 -16 -23 2 -41 12 -11 20 -12 36 -4 23 12 26 30
8 48 -16 16 -30 15 -46 -3z"/>
<path d="M2166 4675 c-18 -19 -12 -41 15 -48 12 -3 23 1 29 13 14 25 13 28 -9
40 -15 7 -23 6 -35 -5z"/>
<path d="M2577 4663 c-14 -13 -6 -42 13 -48 27 -9 40 1 40 31 0 18 -5 24 -23
24 -13 0 -27 -3 -30 -7z"/>
<path d="M2215 4530 c-10 -17 5 -50 24 -50 27 0 42 20 30 42 -10 19 -44 24
-54 8z"/>
<path d="M2504 4508 c-10 -32 23 -54 47 -32 15 13 16 20 6 35 -16 26 -44 24
-53 -3z"/>
<path d="M2353 4454 c-8 -20 21 -49 41 -41 9 4 16 18 16 32 0 20 -5 25 -25 25
-14 0 -28 -7 -32 -16z"/>
<path d="M7398 5335 c-2 -2 -28 -5 -58 -8 -102 -10 -224 -60 -315 -127 -221
-164 -322 -436 -261 -705 2 -11 5 -20 6 -20 1 0 3 -11 6 -25 6 -36 68 -160
104 -206 41 -54 109 -122 143 -142 15 -9 27 -20 27 -24 0 -4 6 -8 13 -8 6 0
23 -9 37 -20 14 -11 30 -20 36 -20 6 0 28 -7 48 -15 20 -8 39 -16 43 -16 5 -1
18 -5 31 -10 25 -10 140 -23 184 -22 41 1 153 17 161 22 1 2 13 5 26 7 41 7
163 70 215 111 164 126 264 321 268 521 1 71 -9 162 -22 196 -4 12 -8 23 -8
26 -2 16 -18 53 -50 120 -71 145 -246 289 -407 336 -58 17 -218 37 -227 29z
m127 -381 c64 -15 136 -73 180 -143 29 -47 34 -65 40 -152 8 -131 -78 -261
-204 -306 -60 -22 -153 -25 -211 -7 -38 11 -94 49 -132 88 -115 119 -112 321
6 439 33 34 136 95 136 82 0 -3 8 -2 17 4 19 10 119 8 168 -5z"/>
<path d="M7406 4874 c-13 -13 -14 -19 -5 -31 20 -23 54 -12 54 17 0 30 -26 38
-49 14z"/>
<path d="M7257 4823 c-12 -12 -7 -43 7 -49 8 -3 24 -1 35 6 17 9 19 15 11 30
-10 20 -40 27 -53 13z"/>
<path d="M7560 4815 c-16 -19 -4 -54 18 -50 9 2 20 4 25 4 14 2 7 49 -9 55
-21 8 -20 8 -34 -9z"/>
<path d="M7202 4678 c-25 -25 0 -64 32 -52 21 8 21 50 0 58 -20 8 -18 8 -32
-6z"/>
<path d="M7612 4643 c4 -35 43 -45 53 -14 9 28 -1 41 -31 41 -22 0 -25 -4 -22
-27z"/>
<path d="M7254 4525 c-9 -23 3 -45 25 -45 20 0 37 32 26 50 -9 15 -45 12 -51
-5z"/>
<path d="M7542 4513 c-13 -26 -4 -43 23 -43 27 0 40 26 24 46 -16 19 -37 17
-47 -3z"/>
<path d="M7400 4460 c-20 -20 -20 -24 -7 -37 8 -9 23 -12 34 -9 22 7 27 40 8
56 -11 9 -19 6 -35 -10z"/>
<path d="M1172 5105 l0 -155 74 0 c41 0 74 3 75 8 0 4 1 72 2 152 l1 145 -77
3 -76 3 1 -156z"/>
</g>
</svg>
